<svg width="52" height="53" viewBox="0 0 52 53" fill="none" xmlns="http://www.w3.org/2000/svg">
<rect y="0.284302" width="52" height="52" rx="26" fill="#EFFAE7" fill-opacity="0.55"/>
<path d="M25.5 36L21.5625 32H18.9375C17.8932 32 16.8917 31.5786 16.1533 30.8284C15.4148 30.0783 15 29.0609 15 28V20C15 18.9391 15.4148 17.9217 16.1533 17.1716C16.8917 16.4214 17.8932 16 18.9375 16H32.0625C33.1068 16 34.1083 16.4214 34.8467 17.1716C35.5852 17.9217 36 18.9391 36 20V28C36 29.0609 35.5852 30.0783 34.8467 30.8284C34.1083 31.5786 33.1068 32 32.0625 32H29.4375L25.5 36Z" stroke="#76E00C" stroke-width="1.2" stroke-linecap="round" stroke-linejoin="round"/>
<path d="M20 21H31" stroke="#76E00C" stroke-width="1.2" stroke-linecap="round" stroke-linejoin="round"/>
<path d="M20 27H28" stroke="#76E00C" stroke-width="1.2" stroke-linecap="round" stroke-linejoin="round"/>
</svg>
