<svg width="52" height="52" viewBox="0 0 52 52" fill="none" xmlns="http://www.w3.org/2000/svg">
<rect width="52" height="52" rx="26" fill="#E7EEFA" fill-opacity="0.55"/>
<path d="M31.6 20.75V17.1875C31.6 16.8726 31.4736 16.5705 31.2485 16.3478C31.0235 16.1251 30.7183 16 30.4 16H18.4C17.7635 16 17.153 16.2502 16.7029 16.6956C16.2529 17.141 16 17.7451 16 18.375C16 19.0049 16.2529 19.609 16.7029 20.0544C17.153 20.4998 17.7635 20.75 18.4 20.75H32.8C33.1183 20.75 33.4235 20.8751 33.6485 21.0978C33.8736 21.3205 34 21.6226 34 21.9375V25.5M34 30.25V33.8125C34 34.1274 33.8736 34.4295 33.6485 34.6522C33.4235 34.8749 33.1183 35 32.8 35H18.4C17.7635 35 17.153 34.7498 16.7029 34.3044C16.2529 33.859 16 33.2549 16 32.625V18.375" stroke="#0B57D0" stroke-width="1.2" stroke-linecap="round" stroke-linejoin="round"/>
<path d="M35 26V30H30.3333C29.7145 30 29.121 29.7893 28.6834 29.4142C28.2458 29.0391 28 28.5304 28 28C28 27.4696 28.2458 26.9609 28.6834 26.5858C29.121 26.2107 29.7145 26 30.3333 26H35Z" stroke="#0B57D0" stroke-width="1.2" stroke-linecap="round" stroke-linejoin="round"/>
</svg>
