<svg width="52" height="52" viewBox="0 0 52 52" fill="none" xmlns="http://www.w3.org/2000/svg">
<rect width="52" height="52" rx="26" fill="#FAE7FA" fill-opacity="0.55"/>
<path d="M33.7769 21.5929L27.4439 16.6671C26.8882 16.2347 26.2041 16 25.5 16C24.7959 16 24.1118 16.2347 23.5561 16.6671L17.2219 21.5929C16.8413 21.8889 16.5333 22.268 16.3215 22.7012C16.1097 23.1344 15.9998 23.6103 16 24.0925V32.6425C16 33.2724 16.2502 33.8765 16.6956 34.3219C17.141 34.7673 17.7451 35.0175 18.375 35.0175H32.625C33.2549 35.0175 33.859 34.7673 34.3044 34.3219C34.7498 33.8765 35 33.2724 35 32.6425V24.0925C35 23.1152 34.5488 22.1925 33.7769 21.5929Z" stroke="#DE18DE" stroke-width="1.2" stroke-linecap="round" stroke-linejoin="round"/>
<path d="M30.2144 29.0622C27.59 30.6451 23.3364 30.6451 20.7144 29.0622" stroke="#DE18DE" stroke-width="1.2" stroke-linecap="round" stroke-linejoin="round"/>
</svg>
