<svg width="52" height="52" viewBox="0 0 52 52" fill="none" xmlns="http://www.w3.org/2000/svg">
<rect width="52" height="52" rx="26" fill="#FBF1F1"/>
<path d="M35.1721 26.7216L26.0102 36L16.8483 26.7216M16.8483 26.7216C16.2439 26.1203 15.7679 25.3976 15.4502 24.5989C15.1325 23.8003 14.9799 22.943 15.0021 22.0811C15.0243 21.2192 15.2208 20.3713 15.5792 19.5909C15.9376 18.8104 16.4502 18.1143 17.0846 17.5464C17.7191 16.9784 18.4616 16.551 19.2656 16.2909C20.0695 16.0308 20.9174 15.9438 21.7558 16.0352C22.5943 16.1267 23.4051 16.3947 24.1373 16.8223C24.8695 17.2499 25.5072 17.828 26.0102 18.52C26.5153 17.833 27.1538 17.26 27.8854 16.8369C28.6171 16.4138 29.4263 16.1497 30.2624 16.0611C31.0985 15.9725 31.9435 16.0613 32.7445 16.322C33.5455 16.5827 34.2853 17.0096 34.9175 17.5761C35.5497 18.1425 36.0607 18.8363 36.4186 19.614C36.7766 20.3918 36.9736 21.2366 36.9975 22.0958C37.0214 22.955 36.8716 23.8099 36.5575 24.6072C36.2434 25.4044 35.7718 26.1268 35.1721 26.7291" stroke="#E81A1A" stroke-width="1.2" stroke-linecap="round" stroke-linejoin="round"/>
</svg>
